<svg width="96" height="96" viewBox="0 0 96 96" fill="none" xmlns="http://www.w3.org/2000/svg">
<path d="M96 48C96 21.4903 74.5097 0 48 0C21.4903 0 0 21.4903 0 48C0 74.5097 21.4903 96 48 96C74.5097 96 96 74.5097 96 48Z" fill="#191724"/>
<path d="M53.0396 54.5469C48.7718 55.6904 46.2389 60.0772 47.3825 64.345C47.6113 65.1986 48.4884 65.7051 49.342 65.4767L57.0693 63.4061C62.1907 62.0337 65.23 56.7695 63.8576 51.6484L53.0396 54.5469Z" fill="#24627B"/>
<path d="M42.4869 54.3548C46.7546 55.4984 49.2875 59.8852 48.1439 64.153C47.9151 65.0066 47.0376 65.5131 46.1844 65.2846L38.4568 63.2137C33.3356 61.8417 30.2963 56.5774 31.6686 51.4564L42.4869 54.3548Z" fill="#24627B"/>
<path d="M57.216 56.2563C51.9141 56.2563 47.616 60.5545 47.616 65.8563H57.216C62.5179 65.8563 66.816 61.5582 66.816 56.2563H57.216Z" fill="#31748F"/>
<path d="M47.712 48.5761C51.6884 48.5761 54.912 45.3525 54.912 41.376C54.912 37.3995 51.6884 34.1759 47.712 34.1759C43.7355 34.1759 40.512 37.3995 40.512 41.376C40.512 45.3525 43.7355 48.5761 47.712 48.5761Z" fill="#EFEFEF"/>
<path d="M50.7302 43.066C53.381 38.4745 51.8077 32.603 47.2163 29.952L44.928 33.9154C42.2769 38.5072 43.8501 44.3781 48.442 47.0293L50.7302 43.066Z" fill="#EBBCBA"/>
<path d="M47.8536 39.2248C46.4812 34.1036 41.2174 31.0644 36.0959 32.4367L38.5808 41.7097C39.9528 46.8311 45.2167 49.8701 50.3381 48.498L47.8536 39.2248Z" fill="#EBBCBA"/>
<path d="M47.7969 39.2248C49.1689 34.1036 54.4328 31.0644 59.5542 32.4367L57.0697 41.7097C55.6973 46.8311 50.4334 49.8701 45.312 48.498L47.7969 39.2248Z" fill="#EBBCBA"/>
<path d="M38.4 56.2563C43.7019 56.2563 48 60.5545 48 65.8563H38.4C33.0982 65.8563 28.8 61.5582 28.8 56.2563H38.4Z" fill="#31748F"/>
</svg>
